<svg width="315" height="60" viewBox="0 0 315 60" fill="none" xmlns="http://www.w3.org/2000/svg">
<g clip-path="url(#clip0_1_2)">
<path d="M48.1185 33.0758V33.7049C49.2909 34.4367 50.3337 35.3708 51.1986 36.4666C51.1986 36.0046 51.1986 32.7973 51.1986 32.3408C51.041 32.3797 49.1964 32.8184 48.1185 33.0758Z" fill="#434343"/>
<path d="M30.3274 19.8869L36.8764 23.8154L36.8134 27.7866H45.7874L45.8579 23.3425L50.7527 23.2511C51.0446 23.2455 51.33 23.1648 51.5815 23.0165L57.1158 19.7532C57.9217 19.278 58.1897 18.2394 57.7146 17.4336C57.3463 16.8092 56.6402 16.5096 55.966 16.6264L50.7845 8.79587C50.6361 8.5734 50.3393 8.49223 50.0972 8.61907C49.8382 8.75483 49.7382 9.07475 49.874 9.33373L54.1807 17.5507L50.2443 19.8719C50.2443 19.8719 45.5637 19.9604 45.4972 19.9696L36.9394 19.855L33.2446 17.6856L35.187 11.9966C35.2503 11.8112 35.2778 11.6226 35.2765 11.4372L42.863 7.20456C43.0961 7.07343 43.1995 6.78358 43.0913 6.53263C42.9755 6.26415 42.664 6.14036 42.3955 6.25612L34.0941 9.83553C33.2193 9.5588 32.2789 10.0289 31.9808 10.902L29.596 17.8867C29.3376 18.6426 29.6425 19.476 30.3274 19.8869Z" fill="#6C6C6C"/>
<path d="M41.5019 18.5972C43.4409 18.5972 45.0128 17.0253 45.0128 15.0863C45.0128 13.1473 43.4409 11.5754 41.5019 11.5754C39.5629 11.5754 37.991 13.1473 37.991 15.0863C37.991 17.0253 39.5629 18.5972 41.5019 18.5972Z" fill="#434343"/>
<path d="M24.8622 51.9572C24.4493 52.3703 24.4493 53.0398 24.8622 53.4528C25.0687 53.6593 25.3394 53.7626 25.61 53.7626C25.8806 53.7626 26.1513 53.6592 26.3578 53.4527L30.9744 48.8357C30.6475 48.1271 30.3919 47.3871 30.2106 46.6245L24.8622 51.9572Z" fill="#434343"/>
<path d="M63.7331 26.4973L60.3403 26.3117C58.7079 26.2224 57.0288 26.3733 55.4292 26.7526C55.4291 26.7526 55.4288 26.7527 55.4287 26.7527V26.2754C55.4287 25.7185 54.9982 25.2625 54.4526 25.221C53.8401 25.1738 53.3137 25.6574 53.3137 26.2754V27.2716C51.6087 27.6922 50.0465 28.208 48.2111 29.3043L46.728 30.1902C46.5331 30.0064 46.2754 29.9015 46.0034 29.9015H34.7163C34.1322 29.9015 33.6588 30.3751 33.6588 30.959C33.6588 31.543 34.1322 32.0166 34.7163 32.0166V33.6638H27.6799V32.0166C28.264 32.0166 28.7374 31.543 28.7374 30.959C28.7374 30.3751 28.264 29.9015 27.6799 29.9015H22.6868V20.6577L30.4927 22.5837C30.8075 22.6613 30.9852 22.2307 30.7063 22.0641L27.7892 20.3217C26.0323 19.2723 24.4903 18.7339 22.6867 18.2889V17.5043C22.6867 16.9203 22.2133 16.4468 21.6292 16.4468C21.0451 16.4468 20.5716 16.9203 20.5716 17.5043V17.77C18.9642 17.3888 17.3103 17.2387 15.6601 17.3291L12.2673 17.5147C11.9436 17.5324 11.8993 17.9961 12.2148 18.074L20.5716 20.1359V29.9016H16.3931C15.809 29.9016 15.3356 30.3752 15.3356 30.9592C15.3356 31.5431 15.809 32.0167 16.3931 32.0167V37.4267C15.809 37.4267 15.3356 37.9003 15.3356 38.4842C15.3356 39.0682 15.809 39.5418 16.3931 39.5418H20.5716V52.7296C20.5716 53.3136 21.0451 53.7871 21.6292 53.7871C22.2133 53.7871 22.6867 53.3136 22.6867 52.7296V39.5419H27.68C28.2641 39.5419 28.7376 39.0683 28.7376 38.4843C28.7376 37.9004 28.2641 37.4268 27.68 37.4268V35.7791H30.1408V41.3717C30.4952 39.6798 31.2024 38.1318 32.2558 36.7012C34.3615 33.8418 37.8666 31.91 41.8175 31.91C43.2078 31.91 44.6325 32.1498 46.0034 32.6624V32.0168C46.4959 32.0168 46.9275 31.6719 47.0349 31.1899C47.0349 31.1898 47.035 31.1897 47.035 31.1895L53.3137 29.6404V40.6269C53.601 41.6605 53.7497 42.7399 53.7497 43.842C53.7497 44.9304 53.6029 46.0106 53.3137 47.053V49.5503C53.3137 50.1344 53.7872 50.6078 54.3712 50.6078C54.957 50.6078 55.4287 50.1327 55.4287 49.5503V48.2519C56.0258 48.849 60.1138 52.9371 60.6387 53.4619C61.0517 53.875 61.7213 53.8749 62.1343 53.4619C62.5473 53.0489 62.5473 52.3793 62.1343 51.9662C61.0448 50.8767 56.234 46.0661 55.4287 45.2607V29.1185L63.7856 27.0566C64.1008 26.9789 64.0557 26.515 63.7331 26.4973Z" fill="#434343"/>
<path d="M41.8176 34.025C36.3958 34.025 32.0005 38.4203 32.0005 43.8421C32.0005 49.5483 36.5345 53.7649 41.8176 53.7649C47.2468 53.7649 51.6619 49.353 51.634 43.895C51.6619 38.4457 47.2553 34.025 41.8176 34.025ZM41.8176 51.6499C37.5707 51.6499 34.1156 48.1948 34.1156 43.9479C34.1156 39.7009 37.5707 36.2459 41.8176 36.2459C46.0645 36.2459 49.5196 39.7009 49.5196 43.9479C49.5196 48.1948 46.0645 51.6499 41.8176 51.6499Z" fill="#434343"/>
</g>
<path d="M86.6 47.472C88.2 47.472 89.608 47.04 90.824 46.176C92.072 45.312 92.696 44.016 92.696 42.288C92.696 40.528 92.024 39.184 90.68 38.256C89.368 37.328 87.48 36.528 85.016 35.856C82.584 35.152 80.808 34.544 79.688 34.032C78.6 33.52 77.56 32.848 76.568 32.016C74.584 30.352 73.592 27.776 73.592 24.288C73.592 21.44 74.6 18.992 76.616 16.944C78.664 14.896 81.448 13.872 84.968 13.872C86.664 13.872 88.424 14.128 90.248 14.64C92.104 15.12 93.256 15.36 93.704 15.36C94.152 15.36 94.552 15.04 94.904 14.4H95.432L95.768 24.096H95C93.464 21.312 91.848 19.088 90.152 17.424C88.488 15.728 86.664 14.88 84.68 14.88C82.728 14.88 81.208 15.344 80.12 16.272C79.032 17.168 78.488 18.384 78.488 19.92C78.488 21.424 79.128 22.592 80.408 23.424C81.72 24.224 83.32 24.88 85.208 25.392C87.096 25.904 88.328 26.256 88.904 26.448C89.512 26.64 90.248 26.912 91.112 27.264C92.008 27.584 92.728 27.936 93.272 28.32C93.848 28.672 94.44 29.136 95.048 29.712C95.688 30.256 96.184 30.864 96.536 31.536C97.4 33.072 97.832 34.896 97.832 37.008C97.832 40.464 96.744 43.248 94.568 45.36C92.424 47.44 89.592 48.48 86.072 48.48C84.248 48.48 82.152 48.24 79.784 47.76C77.448 47.28 76.152 47.04 75.896 47.04C75.448 47.04 75.016 47.52 74.6 48.48H73.928L73.448 37.056H74.264C75.672 39.84 77.464 42.272 79.64 44.352C81.848 46.432 84.168 47.472 86.6 47.472ZM113.701 25.536C112.293 25.536 111.285 26.304 110.677 27.84C110.069 29.376 109.765 31.92 109.765 35.472V37.968C109.765 41.136 110.117 43.408 110.821 44.784C111.525 46.16 112.821 46.848 114.709 46.848C116.597 46.848 118.101 46.208 119.221 44.928C120.341 43.648 121.061 42.192 121.381 40.56L122.245 40.656C121.637 43.408 120.517 45.392 118.885 46.608C117.221 47.856 114.933 48.48 112.021 48.48C108.309 48.48 105.461 47.488 103.477 45.504C101.493 43.488 100.501 40.56 100.501 36.72C100.501 32.848 101.621 29.872 103.861 27.792C106.133 25.712 109.285 24.672 113.317 24.672C116.165 24.672 118.341 25.232 119.845 26.352C121.349 27.44 122.101 28.816 122.101 30.48C122.101 32.144 121.733 33.36 120.997 34.128C120.293 34.896 119.301 35.28 118.021 35.28C116.773 35.28 115.765 34.944 114.997 34.272C114.229 33.6 113.845 32.608 113.845 31.296C113.845 30.72 113.925 30.144 114.085 29.568H115.669C115.893 28.928 116.005 28.352 116.005 27.84C116.005 26.304 115.237 25.536 113.701 25.536ZM122.996 12H134.564V29.568C135.076 28.096 135.86 26.912 136.916 26.016C137.972 25.12 139.572 24.672 141.716 24.672C146.676 24.672 149.156 27.344 149.156 32.688V47.136H151.844V48H138.26V47.136H140.228V31.536C140.228 29.616 140.1 28.384 139.844 27.84C139.588 27.264 139.124 26.976 138.452 26.976C137.428 26.976 136.516 27.648 135.716 28.992C134.948 30.336 134.564 31.968 134.564 33.888V47.136H136.628V48H122.996V47.136H125.636V12.864H122.996V12ZM152.67 25.152H164.238V29.568C164.75 28.096 165.534 26.912 166.59 26.016C167.646 25.12 169.246 24.672 171.39 24.672C176.35 24.672 178.83 27.344 178.83 32.688V47.136H181.518V48H167.934V47.136H169.902V31.536C169.902 29.616 169.774 28.384 169.518 27.84C169.262 27.264 168.798 26.976 168.126 26.976C167.102 26.976 166.19 27.648 165.39 28.992C164.622 30.336 164.238 31.968 164.238 33.888V47.136H166.302V48H152.67V47.136H155.31V26.016H152.67V25.152ZM189.208 21.84C187.512 21.84 186.296 21.408 185.56 20.544C184.856 19.68 184.504 18.608 184.504 17.328C184.504 16.048 184.888 14.992 185.656 14.16C186.456 13.328 187.656 12.912 189.256 12.912C190.856 12.912 192.072 13.296 192.904 14.064C193.736 14.8 194.152 15.872 194.152 17.28C194.152 18.656 193.752 19.76 192.952 20.592C192.152 21.424 190.904 21.84 189.208 21.84ZM181.96 25.152H193.72V47.136H196.408V48H182.152V47.136H184.792V26.016H181.96V25.152ZM207.13 38.064C207.13 41.424 207.306 43.664 207.658 44.784C208.01 45.872 208.65 46.416 209.578 46.416C210.538 46.416 211.354 46 212.026 45.168C212.73 44.336 213.082 43.104 213.082 41.472V31.008C213.082 29.632 212.81 28.464 212.266 27.504C211.722 26.544 210.922 26.064 209.866 26.064C208.81 26.064 208.09 26.768 207.706 28.176C207.322 29.584 207.13 32.048 207.13 35.568V38.064ZM213.706 48L213.178 44.64C212.09 47.2 209.882 48.48 206.554 48.48C203.802 48.48 201.658 47.488 200.122 45.504C198.618 43.52 197.866 40.56 197.866 36.624C197.866 28.656 201.034 24.672 207.37 24.672C210.186 24.672 212.042 25.456 212.938 27.024V12.864H210.01V12H222.01V47.136H224.362V48H213.706ZM238.229 48.48C234.101 48.48 230.997 47.424 228.917 45.312C226.869 43.168 225.845 40.208 225.845 36.432C225.845 32.624 226.997 29.712 229.301 27.696C231.637 25.68 234.597 24.672 238.181 24.672C245.445 24.672 248.933 28.32 248.645 35.616H235.109V37.488C235.109 40.624 235.509 42.992 236.309 44.592C237.109 46.192 238.501 46.992 240.485 46.992C244.197 46.992 246.629 45.008 247.781 41.04L248.645 41.184C248.037 43.488 246.933 45.28 245.333 46.56C243.765 47.84 241.397 48.48 238.229 48.48ZM235.157 34.656H240.101V32.304C240.101 29.712 239.941 27.952 239.621 27.024C239.333 26.064 238.725 25.584 237.797 25.584C236.901 25.584 236.229 26.096 235.781 27.12C235.365 28.112 235.157 29.84 235.157 32.304V34.656ZM266.387 26.496C265.203 26.496 264.163 27.264 263.267 28.8C262.371 30.336 261.923 32.16 261.923 34.272V47.136H265.331V48H250.355V47.136H252.995V26.016H250.355V25.152H261.923V29.76C262.339 28.128 263.139 26.88 264.323 26.016C265.507 25.12 266.851 24.672 268.355 24.672C269.859 24.672 271.075 25.104 272.003 25.968C272.963 26.8 273.443 28 273.443 29.568C273.443 31.104 273.091 32.288 272.387 33.12C271.683 33.952 270.595 34.368 269.123 34.368C267.683 34.368 266.611 33.888 265.907 32.928C265.235 31.968 265.155 30.64 265.667 28.944H267.395C268.195 27.312 267.859 26.496 266.387 26.496ZM277.433 24.912L276.041 12.144C277.321 11.504 278.361 11.184 279.161 11.184C280.249 11.184 280.793 11.776 280.793 12.96C280.793 13.696 280.649 14.752 280.361 16.128L278.441 24.912H277.433ZM283.193 48.48V39.888H283.769C284.601 42.672 285.721 44.624 287.129 45.744C288.537 46.864 290.297 47.424 292.409 47.424C295.673 47.424 297.305 46.384 297.305 44.304C297.305 43.408 296.905 42.736 296.105 42.288C294.857 41.584 293.257 41.04 291.305 40.656C289.129 40.08 287.305 39.312 285.833 38.352C284.073 37.2 283.193 35.376 283.193 32.88C283.193 30.384 283.961 28.4 285.497 26.928C287.033 25.424 289.081 24.672 291.641 24.672C293.209 24.672 294.825 25.04 296.489 25.776C297.097 26.032 297.561 26.16 297.881 26.16C298.201 26.16 298.473 26.048 298.697 25.824C298.921 25.6 299.193 25.184 299.513 24.576H300.041V31.92H299.465C297.833 27.76 295.305 25.68 291.881 25.68C290.377 25.68 289.257 25.952 288.521 26.496C287.785 27.008 287.417 27.664 287.417 28.464C287.417 28.944 287.529 29.328 287.753 29.616C287.977 29.872 288.153 30.064 288.281 30.192C288.409 30.32 288.617 30.464 288.905 30.624C289.193 30.752 289.433 30.864 289.625 30.96C289.817 31.024 290.105 31.12 290.489 31.248C290.905 31.376 291.209 31.456 291.401 31.488C293.577 32.032 295.145 32.512 296.105 32.928C297.065 33.312 297.977 33.792 298.841 34.368C300.601 35.584 301.481 37.552 301.481 40.272C301.481 42.96 300.681 45.008 299.081 46.416C297.481 47.792 295.289 48.48 292.505 48.48C290.521 48.48 288.601 48.016 286.745 47.088C286.361 46.832 286.057 46.704 285.833 46.704C285.129 46.704 284.441 47.296 283.769 48.48H283.193Z" fill="#434343"/>
<defs>
<clipPath id="clip0_1_2">
<rect width="52" height="52" fill="white" transform="translate(12 4)"/>
</clipPath>
</defs>
</svg>
